<svg version="1.1" xmlns="http://www.w3.org/2000/svg" xmlns:xlink="http://www.w3.org/1999/xlink" x="0px" y="0px"
	 viewBox="0 0 1024 1280" style="enable-background:new 0 0 1024 1280;" xml:space="preserve">
<g id="Layer_2">
	<path class="st0" d="M364,291c0,0-142.5,111.5-111.5,203.5s11,27,67,0s114-50,122,31s-35,156,10,181s84,5,75-34s-28-207,10-232
		s44-7,82,9s22-13,48,1s46,54,28,91s20,106-5,146s-22.3,78.7-64,127c-50.4,58.3-87,77-143,76c-71.1-1.3-101-51-152-97
		c-17.1-15.4-26.6-31.6-32.4-46.2c-11.4-29.2-7.7-52.4-17.6-51.8c-15,1-43,8-49-50s-48-156-7-159s51,56,50,96s9,73-14,57
		s-28-59,0-57s7,50,33,110s27,183,14,135s-69-160-81-152s-35,129,27,99s90,107,67,65s-79-109-60-82s90,58,61,16s-47-104-55-64
		c-16.6,83.1,36,48-9,19s-86-214-60-170s26,88,24,99s27-42-2,11s-91-125-36-174c52.1-46.4,97.9-65.9,89.9-16.9
		c-0.5,2.8-1.1,5.7-1.9,8.9c-15,60-80-78-27-115s105-106,81-6s-78,134-56,42s94-38,49,14s-130-11-90-68s171-138,132-20
		s-58,215-29,144c28.8-70.5,0.7-154.4-58-125c-18,9-20,26-14,64c2.7,17.2,2.3,165.2,30,87c29-82,111-228,59-157s-65,250-47,217
		s-25-71,42-73s131-1,112,92s-53.2,111.3-24,128c14,8,14-4,22,0s31,12,49,1c17-11,16,16,28,0s5-37-9-43s5-58,4-79s17,62-9,89
		s-51,44-65-4c-5.4-18.5-3.5-35.7-1.5-50.1c3.2-22.5,6.6-38.1-17.5-40.8c-0.6-0.1-1.3,0.1-1.8,0.3c-10.7,5.4-45.5,10.8-62.1,9.6
		c-8.3-0.6-2.9-0.9-11-3c-18.7-4.9-30.1-18.4-37-30c-16-27,18.3-44,55-44c38,0,53,9,56,32s7,36-2,39s-50,28-91,5c0,0-53-39,2-56
		s80,2,83,16c2.5,11.8,10,22.8,12.3,28.4c0.4,0.9,1.2,1.6,2.2,1.9c4.9,1.3,19.3,9.4,7.5,60.8c-14,61,44,106,70,45s-9-130,15-164
		c23.9-33.8,92.4-61.7,159.1-9.7c0.6,0.5,1,1.1,1.2,1.9c7.7,34.2,4.5,49.8-15.3,42.8c-20-7-41-41-86-27c-8.8,2.7-23,9-42,44
		c-1.7,3.2-0.7-15,0.5-18.4c4.9-14.1,14.7-32.1,34.5-40.6c34.4-14.7,69.7-2.5,71,17.9c0,0.8,0.4,1.5,0.9,2c6.3,6.4,8.9,9.7,5.1,23.1
		c-4,14-24,41-56,37c-26.9-3.4-48.1-14.5-54.2-18c-1.1-0.6-1.7-1.9-1.6-3.1c0.8-9.2,5.4-45.8,29.9-51.9c28-7,39.8,1.9,53,16
		c14,15,3,57-21,55s-53-30-30-50s43-19,45-8s14,47-10,54s-38-3-38-23s11-34,27-33s12,65,0,55s-21-46-9-51c6.9-2.9,15.1-3.8,20.3,0.9
		c3.8,3.5,6,10,4.7,21.1c-3,26-11,46-31,16s2-46,18-34s17,13-5,26s-22-32-7-17s17,36,9,29s-8-65,14-44s10,52-11,50s-38-39-13-40
		s16,29,1,16s35-35,30-1c-3.8,25.5-28.8,32.7-56,26c-4.1-1,24,16,45,15c19.4-0.9,42.1-14.6,42.2-41.1c0-2.3,2.3-3.9,4.4-3.1
		c15.5,5.8,38.4,11.3,38.4-16.8c0-31,11-54-36-72s-97-4-110,7s-24,14-23,43s-19,56-18,64s11,128-2,132s-60,4-69-26s-22-20-3-60
		s19-112-3-124c-21.8-11.9-36.7-23.7-145.3-12.4c-2,0.2-3.7-1.4-3.6-3.4c1.4-44.9,10.5-108-5.1-63.2
		c-14.5,41.6,11.2,58.7,10.2,104.5c-0.1,4.8-0.5,9.9-1.2,15.5c-8,58-2,118-21,104s-58-36-10-74s16,25,10,0s-18-45-11-93
		s-22-105-39-52s-23,209,17,306s-118-75,21-27s-69,356-118,122s-9-217,32-387s160-338,319-232s20,119,161,132s279,84,192,354
		s-142,570-54,363s-29-513-74-294s155,206,155,42s42-635-192-659c-266.4-27.3-530,39-275,126s56-78,107,36s156,179,210,122
		s138,147,69,195c-17.2,12-41.7,38.9-66,71.6c-73.1,97.9-145.5,247.2-21,198.4c166-65,186,95,84,96s-115-135-29-228s150-508,63-366
		s182,458,59,517s-145.1,39.5-104-81c122-358-196-649-75-540c273.8,246.6-345,122-399-40s390-142,341,12s-272-37-383,69
		s-206,369-79,444s-5-246-17-102s35,299,122,202s-40-177-33-54s193.3,121.4,138,33c-80.7-129.1-135-240-129-106
		c5.4,120.2-204,176-165-12s-46-247,70-398s16-265,299-190s299,26,186-17s-237,45-294,60s-226,17-240,122s-16,224-38,274
		s-23,241,23,389s-40,128-24,3s122-433,67-315s-90,470,102,459s-131-171-9-81s182,116,176,58s-85-92-42-100
		c42.5-7.9-35.1-141.8-23.5-184.5c0.3-1.1,0-2.3-0.8-3.1c-23.8-23.7-191.4,88.3-79.7,167.6c114,81,82,176-28,104s-97-302,49-161
		s-145,210-162,41s19-412,48-237s19,396-27,186s-177-303-12-483s307-366,180-276s391,23,296-9s-157,40-21,106s182-115,252,83
		s188,408,141,459s-202,287-122,208s-13-91-46,14s-8,125,25,67s67-267,3-249s-66,263-138,263s-144-93-72-170s115-298,63-175
		s-92,368-36,286s-116-256-63-151s62,215,107,162s21-295-12-344s-9,25,24-15s17.9-84.6,41-105c44-39,19-180-57-69c5-42-28-111-2-97
		s-6,107-1,139s-11.5,86.9,9,74c49-31-9-60,9-70s58-52.5,27-53c-59-1-40,154-60,169s-78,52-114,8s-16,27,40,30s-30,48-51,45
		s-43.9-29.5-65-20c-20,9-25,2-37-1c-9.6-2.4-29,15-55,12s-3,4,12,18s57,45,106,19s50-29,39-28c-16.4,1.5-47,10-84,9
		c-19-0.5-104-29-80-10s31,56,85,53s98-18,110-38s17-82,41-68s6,52-8,40s-10-35,38-45s44-88,22-44s-48,145-54,117s39-70,30-32
		s-52,4-52,35s6,45,20,28s-2-93,24-93s54,41,18,86s-95,30-71,112s48,187,80,127s133-240,74-205s-104,92-71,115s210-159,177-195
		s41-324,61-135s58,390-24,241s-28-432-150-538s-250-157-365-97s-209,15-239,168s155,418,78,456s184,60,96,134s-83-335-33-237
		s-91-46-98-166s78-135,96-88s41.4,65.8,50,73c7.8,6.5,59,29,74,14c19.7-19.7,15-43-5-51s-52,1-52,4s-7,41,17,46s52-27,35-50
		s-50,60-19,42c11.6-6.8,16.6-10.5,21-16.6c7.4-10.1-1.1-24.3-13-27.4c-19-5-33-3-36,6s6,58,22,37s-4-53-12-41s-5,43,7,40
		s33-32,16-37s-25,10-10,23s26-16,14-13s-7,43,6,26s12-43-4-43s-43,16-26,32s30,32,41,9c12.7-26.5,6.7-40-6-25c-11,13-3,42-14,42
		s-46,3-74-35c-19.8-26.9-32-35-31-10s3,20-3,13s-24-62-46-35"/>
</g>
</svg>
